<svg width="211" height="169" viewBox="0 0 211 169" fill="none" xmlns="http://www.w3.org/2000/svg">
    <path
        d="M24.8837 64.7765L24.8566 100.018C24.8529 104.877 30.0526 107.968 34.3193 105.643L65.5638 88.6146C69.94 86.2296 70.0312 79.9787 65.7264 77.4671L34.5089 59.2535C30.2442 56.7653 24.8875 59.839 24.8837 64.7765Z"
        fill="#65DCFF" />
    <path
        d="M117.884 11.1339L117.857 46.3756C117.853 51.2347 123.053 54.3254 127.319 52.0001L158.564 34.972C162.94 32.587 163.031 26.3361 158.726 23.8245L127.509 5.6109C123.244 3.12268 117.887 6.19641 117.884 11.1339Z"
        fill="#65DCFF" />
    <path
        d="M129.822 162.382L160.405 144.872C164.622 142.458 164.716 136.41 160.577 133.865L130.261 115.234C126.014 112.625 120.547 115.656 120.51 120.639L120.242 156.781C120.205 161.718 125.537 164.835 129.822 162.382Z"
        fill="#65DCFF" />
    <path
        d="M185.642 64.7765L185.669 100.018C185.673 104.877 180.473 107.968 176.206 105.643L144.962 88.6146C140.585 86.2296 140.494 79.9787 144.799 77.4671L176.016 59.2535C180.281 56.7653 185.638 59.839 185.642 64.7765Z"
        fill="url(#paint0_linear_588_174)" />
    <path
        d="M92.6417 11.1339L92.6688 46.3756C92.6725 51.2347 87.4728 54.3254 83.2061 52.0001L51.9616 34.972C47.5854 32.587 47.4942 26.3361 51.799 23.8245L83.0165 5.6109C87.2812 3.12268 92.6379 6.19641 92.6417 11.1339Z"
        fill="url(#paint1_linear_588_174)" />
    <path
        d="M80.7038 162.382L50.1199 144.872C45.903 142.458 45.809 136.41 49.9488 133.865L80.2648 115.234C84.5109 112.625 89.9786 115.656 90.0155 120.639L90.2835 156.781C90.3201 161.718 84.9888 164.835 80.7038 162.382Z"
        fill="url(#paint2_linear_588_174)" />
    <defs>
        <linearGradient id="paint0_linear_588_174" x1="180.966" y1="103.845" x2="163.06"
            y2="73.1561" gradientUnits="userSpaceOnUse">
            <stop stop-color="#06B6D4" />
            <stop offset="1" stop-color="#3B82F6" />
            <stop offset="1" stop-color="#3B82F6" />
        </linearGradient>
        <linearGradient id="paint1_linear_588_174" x1="87.9656" y1="50.2025" x2="70.0603"
            y2="19.5135" gradientUnits="userSpaceOnUse">
            <stop stop-color="#06B6D4" />
            <stop offset="1" stop-color="#3B82F6" />
            <stop offset="1" stop-color="#3B82F6" />
        </linearGradient>
        <linearGradient id="paint2_linear_588_174" x1="49.1402" y1="138.888" x2="84.6697"
            y2="138.625" gradientUnits="userSpaceOnUse">
            <stop stop-color="#06B6D4" />
            <stop offset="1" stop-color="#3B82F6" />
            <stop offset="1" stop-color="#3B82F6" />
        </linearGradient>
    </defs>
</svg>